<svg width="300" height="300" viewBox="0 0 300 300" fill="none" xmlns="http://www.w3.org/2000/svg">
<circle cx="150" cy="150" r="150" fill="#1A489E"/>
<path d="M270.316 160.784C269.524 162.045 268.615 163.057 267.588 163.82C266.561 164.583 265.065 165.037 263.1 165.184C261.223 165.331 259.316 165.287 257.38 165.052C255.473 164.788 253.743 164.363 252.188 163.776C250.633 163.16 249.416 162.412 248.536 161.532C248.037 161.004 247.597 160.373 247.216 159.64C246.864 158.907 246.497 158.1 246.116 157.22C245.676 156.164 245.148 155.049 244.532 153.876C243.945 152.673 243.417 151.427 242.948 150.136C242.391 148.523 241.775 147.1 241.1 145.868C240.455 144.607 240.103 143.36 240.044 142.128L241.364 143.668C242.039 144.46 242.743 145.369 243.476 146.396C244.239 147.393 244.928 148.493 245.544 149.696C246.307 151.133 247.04 152.6 247.744 154.096C248.477 155.563 249.255 156.795 250.076 157.792C250.868 158.731 251.88 159.405 253.112 159.816C254.373 160.227 255.972 160.461 257.908 160.52C258.905 160.549 259.859 160.432 260.768 160.168C261.677 159.875 262.337 159.42 262.748 158.804C262.601 157.777 262.411 156.824 262.176 155.944C261.941 155.035 261.619 154.228 261.208 153.524C260.915 153.025 260.577 152.6 260.196 152.248C259.844 151.867 259.58 151.441 259.404 150.972C260.02 150.767 260.519 150.825 260.9 151.148C261.311 151.441 261.692 151.793 262.044 152.204C262.308 152.527 262.587 152.835 262.88 153.128C263.203 153.421 263.569 153.612 263.98 153.7C263.951 153.847 263.951 153.964 263.98 154.052C264.009 154.111 264.053 154.184 264.112 154.272C264.171 154.389 264.215 154.477 264.244 154.536C265.124 154.771 265.784 155.211 266.224 155.856C266.664 156.501 267.06 157.191 267.412 157.924C267.911 158.012 268.321 158.232 268.644 158.584C268.967 158.936 269.26 159.317 269.524 159.728C269.788 160.139 270.052 160.491 270.316 160.784ZM238.548 165.316C237.463 165.081 236.568 164.685 235.864 164.128C235.16 163.571 234.573 162.896 234.104 162.104C233.664 161.312 233.239 160.491 232.828 159.64C233.327 158.789 233.693 157.792 233.928 156.648C234.192 155.475 234.339 154.257 234.368 152.996C234.397 151.705 234.324 150.473 234.148 149.3C234.001 148.361 233.811 147.555 233.576 146.88C234.075 147.085 234.529 147.452 234.94 147.98C235.38 148.508 235.805 149.065 236.216 149.652C236.627 150.209 237.067 150.693 237.536 151.104C237.712 151.984 237.8 152.893 237.8 153.832C237.8 154.771 237.771 155.695 237.712 156.604C237.653 157.719 237.624 158.819 237.624 159.904C237.653 160.989 237.859 161.987 238.24 162.896C238.299 163.043 238.372 163.189 238.46 163.336C238.548 163.453 238.621 163.571 238.68 163.688C238.885 163.981 239.017 164.26 239.076 164.524C239.135 164.759 238.959 165.023 238.548 165.316ZM267.632 145.868C267.104 145.985 266.561 146.073 266.004 146.132C265.447 146.161 264.933 146.117 264.464 146C263.995 145.853 263.379 145.443 262.616 144.768C261.883 144.064 261.223 143.389 260.636 142.744C260.313 142.392 260.005 142.055 259.712 141.732C259.419 141.409 259.125 141.116 258.832 140.852C258.099 140.119 257.6 139.371 257.336 138.608C258.04 138.549 258.671 138.608 259.228 138.784C259.785 138.931 260.313 139.092 260.812 139.268C261.193 139.385 261.56 139.503 261.912 139.62C262.293 139.737 262.689 139.825 263.1 139.884C263.335 140.177 263.613 140.441 263.936 140.676C264.288 140.881 264.655 140.94 265.036 140.852C265.183 141.087 265.344 141.307 265.52 141.512C265.725 141.717 265.931 141.937 266.136 142.172C266.605 142.641 267.016 143.169 267.368 143.756C267.749 144.313 267.837 145.017 267.632 145.868ZM256.544 149.124C256.456 149.623 256.236 149.945 255.884 150.092C255.532 150.239 255.121 150.283 254.652 150.224C253.919 150.107 253.156 149.799 252.364 149.3C251.601 148.801 251.147 148.317 251 147.848C250.589 146.645 250.105 145.648 249.548 144.856C248.991 144.035 248.463 143.125 247.964 142.128C248.668 142.392 249.431 142.641 250.252 142.876C251.073 143.081 251.865 143.345 252.628 143.668C253.42 143.961 254.08 144.357 254.608 144.856C254.901 145.12 255.209 145.531 255.532 146.088C255.855 146.645 256.119 147.217 256.324 147.804C256.529 148.361 256.603 148.801 256.544 149.124Z" fill="white"/>
<circle cx="111" cy="150" r="100" fill="#E62119"/>
<circle cx="105" cy="150" r="45" fill="white"/>
<path d="M129.184 75.44C128.979 75.968 128.568 76.5107 127.952 77.068C127.365 77.596 126.72 78.0213 126.016 78.344C125.341 78.6667 124.769 78.8133 124.3 78.784C123.713 78.7253 123.2 78.5493 122.76 78.256C122.32 77.9333 121.895 77.5813 121.484 77.2C121.103 76.8187 120.648 76.496 120.12 76.232C120.648 75.4693 121.161 74.8387 121.66 74.34C122.188 73.8413 122.643 73.2987 123.024 72.712C123.435 72.1253 123.713 71.348 123.86 70.38C122.98 69.8227 121.997 69.544 120.912 69.544C119.827 69.5147 118.741 69.5293 117.656 69.588C117.48 69.6173 117.304 69.6467 117.128 69.676C116.952 69.676 116.776 69.676 116.6 69.676C116.013 69.7053 115.148 69.7347 114.004 69.764C112.86 69.7933 111.599 69.8373 110.22 69.896C108.841 69.9547 107.477 70.028 106.128 70.116C104.779 70.204 103.561 70.3213 102.476 70.468C101.42 70.5853 100.643 70.732 100.144 70.908C99.4107 71.172 98.8093 71.7 98.34 72.492C97.9 73.284 97.5187 74.1787 97.196 75.176C96.9027 76.144 96.6387 77.068 96.404 77.948C96.1693 78.828 95.9053 79.5027 95.612 79.972C95.9053 80.5293 95.9933 80.984 95.876 81.336C95.788 81.6587 95.6413 81.9227 95.436 82.128C94.644 81.864 93.8667 81.5267 93.104 81.116C92.3707 80.676 91.7693 80.1627 91.3 79.576C90.8307 78.96 90.596 78.256 90.596 77.464C91.564 76.9653 92.356 76.188 92.972 75.132C93.6173 74.076 94.0573 73.0493 94.292 72.052C94.0867 71.612 93.808 71.216 93.456 70.864C93.104 70.512 92.8547 70.0573 92.708 69.5C93.8227 69.2067 95.0987 68.972 96.536 68.796C98.0027 68.5907 99.4987 68.444 101.024 68.356C102.579 68.2387 104.045 68.1507 105.424 68.092C106.832 68.004 108.02 67.916 108.988 67.828C108.959 67.564 108.944 67.168 108.944 66.64C108.944 66.0827 108.959 65.5253 108.988 64.968C108.607 64.4987 108.123 64.1173 107.536 63.824C106.979 63.5307 106.421 63.2227 105.864 62.9C105.336 62.5773 104.911 62.152 104.588 61.624C105.556 61.2133 106.597 60.9933 107.712 60.964C108.856 60.9347 109.927 61.1107 110.924 61.492C111.951 61.844 112.713 62.4453 113.212 63.296C113.124 63.8827 112.919 64.6013 112.596 65.452C112.303 66.2733 111.98 67.0213 111.628 67.696C112.831 67.6667 113.931 67.6227 114.928 67.564C115.955 67.476 116.893 67.388 117.744 67.3C119.152 67.1827 120.413 67.1093 121.528 67.08C122.643 67.0213 123.699 67.124 124.696 67.388C125.693 67.652 126.705 68.1507 127.732 68.884C127.849 69.148 127.937 69.3973 127.996 69.632C128.084 69.8667 128.113 70.116 128.084 70.38C128.084 70.4093 128.099 70.4387 128.128 70.468C128.509 71.2013 128.861 71.9933 129.184 72.844C129.507 73.6947 129.507 74.56 129.184 75.44ZM125.62 97.792C125.327 98.408 124.857 98.7453 124.212 98.804C123.567 98.8627 122.951 98.8773 122.364 98.848C122.217 98.8187 122.115 98.804 122.056 98.804C121.352 98.7453 120.443 98.6867 119.328 98.628C118.243 98.5987 117.128 98.5547 115.984 98.496C114.84 98.4667 113.857 98.452 113.036 98.452C111.716 98.4227 110.293 98.4373 108.768 98.496C107.243 98.5547 105.761 98.716 104.324 98.98C102.916 99.2733 101.728 99.772 100.76 100.476C99.792 100.417 98.9707 100.153 98.296 99.684C97.6213 99.2147 97.0347 98.628 96.536 97.924C96.0373 97.22 95.568 96.5013 95.128 95.768C95.4507 95.3573 95.832 95.196 96.272 95.284C96.7413 95.372 97.2107 95.5187 97.68 95.724C97.9147 95.812 98.1347 95.9 98.34 95.988C98.5747 96.0467 98.7947 96.0907 99 96.12C100.291 96.0613 101.772 96.0027 103.444 95.944C105.145 95.856 106.627 95.68 107.888 95.416C108.123 94.5947 108.284 93.7 108.372 92.732C108.489 91.7347 108.548 90.8107 108.548 89.96C108.548 89.08 108.489 88.4347 108.372 88.024C108.167 87.672 107.8 87.4667 107.272 87.408C106.744 87.32 106.201 87.3493 105.644 87.496C105.087 87.6427 104.647 87.8773 104.324 88.2C102.799 88.1413 101.655 87.716 100.892 86.924C100.129 86.1027 99.4987 85.1347 99 84.02C99.1467 84.02 99.3227 83.9907 99.528 83.932C99.7333 83.8733 99.9387 83.844 100.144 83.844C100.643 83.844 101.156 83.9613 101.684 84.196C102.212 84.4307 102.769 84.5773 103.356 84.636C103.884 84.6947 104.676 84.7093 105.732 84.68C106.817 84.6213 107.976 84.548 109.208 84.46C110.44 84.3427 111.569 84.196 112.596 84.02C113.623 83.8147 114.371 83.58 114.84 83.316C115.192 83.14 115.632 83.1253 116.16 83.272C116.717 83.4187 117.275 83.668 117.832 84.02C118.389 84.3427 118.873 84.6947 119.284 85.076C119.724 85.4573 120.003 85.78 120.12 86.044C119.123 86.1907 118.184 86.2933 117.304 86.352C116.453 86.4107 115.559 86.484 114.62 86.572C113.711 86.6307 112.64 86.7773 111.408 87.012C112.024 87.4227 112.376 88.024 112.464 88.816C112.552 89.5787 112.493 90.4293 112.288 91.368C112.083 92.2773 111.863 93.172 111.628 94.052C111.54 94.2867 111.467 94.5213 111.408 94.756C111.349 94.9907 111.291 95.2107 111.232 95.416C111.408 95.3867 111.613 95.3867 111.848 95.416C112.112 95.416 112.376 95.416 112.64 95.416C113.227 95.4453 113.857 95.46 114.532 95.46C115.207 95.46 115.852 95.372 116.468 95.196C117.084 95.02 117.597 94.712 118.008 94.272C119.563 94.536 120.956 94.9173 122.188 95.416C123.449 95.8853 124.593 96.6773 125.62 97.792ZM122.408 81.644C121.088 81.7613 119.695 81.776 118.228 81.688C116.761 81.6 115.441 81.3067 114.268 80.808C113.124 80.28 112.332 79.488 111.892 78.432C111.716 78.0213 111.613 77.6547 111.584 77.332C111.555 77.0093 111.54 76.672 111.54 76.32C111.511 75.792 111.437 75.176 111.32 74.472C111.203 73.768 110.807 72.7853 110.132 71.524C110.455 71.3773 110.748 71.304 111.012 71.304C111.276 71.304 111.511 71.304 111.716 71.304C111.951 71.3333 112.127 71.348 112.244 71.348C113.124 71.5827 113.725 72.052 114.048 72.756C114.371 73.46 114.576 74.2667 114.664 75.176C114.781 76.056 114.913 76.892 115.06 77.684C115.119 77.8893 115.236 78.0507 115.412 78.168C115.588 78.2853 115.881 78.344 116.292 78.344C117.612 78.344 118.815 78.6667 119.9 79.312C120.985 79.928 121.821 80.7053 122.408 81.644ZM107.052 74.428C106.319 76.5693 105.439 78.2707 104.412 79.532C103.415 80.764 102.197 81.908 100.76 82.964C100.408 82.876 100.056 82.788 99.704 82.7C99.3813 82.612 99.088 82.48 98.824 82.304C99 81.8933 99.2493 81.4827 99.572 81.072C99.8947 80.632 100.247 80.1773 100.628 79.708C101.215 79.004 101.757 78.2707 102.256 77.508C102.784 76.716 103.033 75.9093 103.004 75.088C103.004 74.7947 102.931 74.56 102.784 74.384C102.667 74.1787 102.549 73.9733 102.432 73.768C102.256 73.592 102.109 73.4013 101.992 73.196C101.875 72.9613 101.845 72.6973 101.904 72.404C102.931 72.2573 103.899 72.404 104.808 72.844C105.747 73.284 106.495 73.812 107.052 74.428Z" fill="white"/>
<path d="M130.812 225.096C130.695 225.301 130.475 225.551 130.152 225.844C129.859 226.108 129.507 226.24 129.096 226.24C128.011 226.24 126.808 226.167 125.488 226.02C124.168 225.873 122.789 225.741 121.352 225.624C120.061 225.536 118.756 225.492 117.436 225.492C116.116 225.492 114.84 225.609 113.608 225.844C113.491 226.753 113.447 227.692 113.476 228.66C113.505 229.599 113.549 230.537 113.608 231.476C113.637 231.975 113.667 232.459 113.696 232.928C113.725 233.397 113.74 233.867 113.74 234.336C113.769 235.685 113.667 237.005 113.432 238.296C113.227 239.557 112.743 240.716 111.98 241.772C110.015 242.007 108.064 241.787 106.128 241.112C104.192 240.467 102.447 239.719 100.892 238.868C100.745 238.369 100.511 237.944 100.188 237.592C99.8947 237.24 99.572 236.917 99.22 236.624C99.4547 236.477 99.66 236.463 99.836 236.58C100.041 236.668 100.247 236.8 100.452 236.976C100.599 237.064 100.731 237.152 100.848 237.24C100.995 237.328 101.141 237.401 101.288 237.46C101.728 237.607 102.329 237.724 103.092 237.812C103.855 237.9 104.647 237.929 105.468 237.9C106.319 237.871 107.067 237.768 107.712 237.592C108.387 237.416 108.841 237.137 109.076 236.756C109.487 236.111 109.751 235.348 109.868 234.468C109.985 233.559 110.029 232.605 110 231.608C110 231.168 109.985 230.728 109.956 230.288C109.927 229.819 109.897 229.379 109.868 228.968C109.839 228.381 109.809 227.839 109.78 227.34C109.78 226.841 109.78 226.387 109.78 225.976C108.871 225.976 107.873 226.035 106.788 226.152C105.732 226.269 104.661 226.445 103.576 226.68C102.373 226.915 101.2 227.208 100.056 227.56C98.912 227.912 97.9 228.293 97.02 228.704C96.1987 228.44 95.3333 228.103 94.424 227.692C93.544 227.281 92.7813 226.753 92.136 226.108C91.4907 225.463 91.08 224.641 90.904 223.644C91.6667 223.673 92.4 223.747 93.104 223.864C93.808 223.981 94.424 224.201 94.952 224.524C95.128 224.465 95.3333 224.436 95.568 224.436C95.832 224.407 96.0373 224.275 96.184 224.04C97.2987 224.099 98.428 224.084 99.572 223.996C100.716 223.879 101.904 223.747 103.136 223.6C104.133 223.483 105.175 223.38 106.26 223.292C107.345 223.175 108.489 223.116 109.692 223.116C109.692 222.353 109.619 221.664 109.472 221.048C109.355 220.403 109.267 219.743 109.208 219.068C107.859 219.273 106.509 219.449 105.16 219.596C103.84 219.713 102.667 220.08 101.64 220.696C100.819 220.109 100.041 219.508 99.308 218.892C98.604 218.247 98.1053 217.484 97.812 216.604C98.1347 216.311 98.604 216.237 99.22 216.384C99.836 216.531 100.335 216.721 100.716 216.956C101.743 217.015 102.74 217 103.708 216.912C104.676 216.824 105.615 216.721 106.524 216.604C106.876 216.575 107.213 216.545 107.536 216.516C107.859 216.457 108.181 216.413 108.504 216.384C108.709 215.768 108.724 215.284 108.548 214.932C108.372 214.551 108.167 214.169 107.932 213.788C107.785 213.612 107.653 213.436 107.536 213.26C107.419 213.084 107.316 212.879 107.228 212.644C106.759 212.703 106.172 212.82 105.468 212.996C104.764 213.172 104.06 213.319 103.356 213.436C102.593 213.553 101.889 213.553 101.244 213.436C100.599 213.319 100.159 212.981 99.924 212.424C99.836 212.424 99.6747 212.439 99.44 212.468C99.2347 212.497 99.0293 212.512 98.824 212.512C98.648 212.512 98.5307 212.453 98.472 212.336C100.173 211.837 101.904 211.309 103.664 210.752C105.453 210.165 107.199 209.505 108.9 208.772C110.601 208.009 112.141 207.115 113.52 206.088C113.461 205.736 113.271 205.516 112.948 205.428C112.655 205.311 112.464 205.091 112.376 204.768C114.107 204.181 115.617 204.035 116.908 204.328C118.228 204.621 119.387 205.325 120.384 206.44C120.355 207.056 120.105 207.481 119.636 207.716C119.167 207.951 118.756 208.244 118.404 208.596C117.612 208.596 116.923 208.713 116.336 208.948C115.749 209.183 115.192 209.432 114.664 209.696C114.165 209.96 113.681 210.195 113.212 210.4C112.743 210.576 112.215 210.664 111.628 210.664C111.657 210.811 111.555 210.943 111.32 211.06C111.085 211.177 110.836 211.28 110.572 211.368C110.484 211.397 110.425 211.427 110.396 211.456C110.543 211.661 110.689 211.867 110.836 212.072C110.983 212.277 111.129 212.483 111.276 212.688C111.687 213.157 112.024 213.641 112.288 214.14C112.581 214.609 112.684 215.152 112.596 215.768C113.505 215.445 114.415 215.255 115.324 215.196C116.233 215.137 117.099 215.181 117.92 215.328C118.771 215.475 119.563 215.724 120.296 216.076C121.059 216.428 121.704 216.824 122.232 217.264C121.821 217.645 121.264 217.895 120.56 218.012C119.885 218.129 119.152 218.188 118.36 218.188C118.272 218.188 118.169 218.188 118.052 218.188C117.964 218.188 117.876 218.188 117.788 218.188C116.937 218.188 116.072 218.217 115.192 218.276C114.341 218.305 113.564 218.481 112.86 218.804C112.977 219.449 113.036 220.021 113.036 220.52C113.036 221.019 113.08 221.649 113.168 222.412C113.725 222.705 114.444 222.852 115.324 222.852C116.204 222.823 117.099 222.779 118.008 222.72C118.536 222.661 119.049 222.617 119.548 222.588C120.076 222.559 120.56 222.559 121 222.588C121.235 222.471 121.455 222.353 121.66 222.236C121.895 222.119 122.085 221.972 122.232 221.796C123.611 222.089 125.063 222.427 126.588 222.808C128.143 223.189 129.477 223.761 130.592 224.524C130.563 224.671 130.548 224.803 130.548 224.92C130.577 225.008 130.665 225.067 130.812 225.096Z" fill="white"/>
<path d="M233.696 65.04C233.579 65.3333 233.359 65.524 233.036 65.612C232.713 65.7 232.376 65.7733 232.024 65.832C231.701 65.8613 231.423 65.9787 231.188 66.184C231.012 67.0933 230.939 68.164 230.968 69.396C231.027 70.628 231.115 71.9187 231.232 73.268C231.349 74.4707 231.437 75.688 231.496 76.92C231.555 78.1227 231.54 79.2667 231.452 80.352C231.364 81.496 231.041 82.3173 230.484 82.816C229.956 83.3147 229.311 83.564 228.548 83.564C227.375 83.564 226.143 83.1387 224.852 82.288C224.412 81.9947 224.031 81.6427 223.708 81.232C223.385 80.8507 223.048 80.4547 222.696 80.044C222.373 79.6333 221.948 79.3107 221.42 79.076C221.42 79.076 221.625 79.0907 222.036 79.12C222.447 79.1493 222.887 79.2227 223.356 79.34C223.385 79.34 223.429 79.3547 223.488 79.384C223.957 79.5013 224.441 79.5893 224.94 79.648C225.439 79.7067 225.908 79.604 226.348 79.34C226.817 79.076 227.125 78.592 227.272 77.888C227.448 77.1547 227.521 76.3333 227.492 75.424C227.492 74.632 227.433 73.8107 227.316 72.96C227.228 72.08 227.14 71.2587 227.052 70.496C226.935 69.6453 226.847 68.8973 226.788 68.252C226.729 67.6067 226.744 67.1667 226.832 66.932C226.539 66.6093 226.392 66.228 226.392 65.788C226.392 65.348 226.289 64.996 226.084 64.732C225.82 64.7613 225.541 64.7907 225.248 64.82C224.955 64.82 224.647 64.82 224.324 64.82C223.473 64.8493 222.608 64.908 221.728 64.996C220.877 65.0547 220.159 65.26 219.572 65.612C219.161 65.876 218.839 66.228 218.604 66.668C218.399 67.108 218.34 67.68 218.428 68.384C219.103 68.56 219.865 68.5893 220.716 68.472C221.596 68.3547 222.285 68.1787 222.784 67.944C223.488 68.1493 224.148 68.4133 224.764 68.736C225.38 69.0293 225.864 69.4547 226.216 70.012C225.277 70.2467 224.412 70.4227 223.62 70.54C222.857 70.628 222.065 70.7013 221.244 70.76C220.423 70.8187 219.484 70.9067 218.428 71.024C218.281 71.4933 218.208 71.948 218.208 72.388C218.208 72.828 218.223 73.2973 218.252 73.796C218.399 73.796 218.545 73.796 218.692 73.796C218.868 73.7667 219.029 73.7373 219.176 73.708C220.173 73.62 221.156 73.5613 222.124 73.532C223.121 73.5027 224.031 73.6053 224.852 73.84C225.703 74.0747 226.407 74.544 226.964 75.248C225.468 75.4827 223.987 75.6587 222.52 75.776C221.053 75.864 219.587 75.9813 218.12 76.128C218.12 78.152 218.076 80.352 217.988 82.728C217.137 83.0213 216.404 83.0067 215.788 82.684C215.172 82.3613 214.644 81.892 214.204 81.276C213.793 80.66 213.441 80.0733 213.148 79.516C213.735 79.34 214.087 78.944 214.204 78.328C214.351 77.712 214.556 77.1693 214.82 76.7C214.967 76.7293 215.025 76.8173 214.996 76.964C214.967 77.0813 214.923 77.2133 214.864 77.36C214.747 77.5947 214.703 77.7413 214.732 77.8C214.967 77.7707 215.099 77.668 215.128 77.492C215.187 77.2867 215.216 77.0667 215.216 76.832C215.245 76.5973 215.319 76.4067 215.436 76.26C215.319 76.26 215.231 76.2893 215.172 76.348C215.113 76.3773 215.04 76.4507 214.952 76.568C214.864 76.4213 214.835 76.2747 214.864 76.128C214.923 75.9813 214.981 75.8347 215.04 75.688C215.099 75.5413 215.128 75.4387 215.128 75.38C214.952 75.204 214.791 75.028 214.644 74.852C214.497 74.6467 214.307 74.4853 214.072 74.368C214.659 74.1627 215.069 73.8693 215.304 73.488C215.568 73.1067 215.7 72.6813 215.7 72.212C215.7 71.6253 215.583 71.0387 215.348 70.452C215.143 69.836 214.923 69.2933 214.688 68.824H215.568C215.773 67.9733 215.729 67.3427 215.436 66.932C215.172 66.492 214.835 66.096 214.424 65.744C214.248 65.5973 214.072 65.4507 213.896 65.304C213.749 65.128 213.603 64.9373 213.456 64.732C213.632 64.6147 213.823 64.4973 214.028 64.38C214.263 64.2333 214.483 64.1013 214.688 63.984C216.331 63.632 218.032 63.412 219.792 63.324C221.581 63.2067 223.327 63.0893 225.028 62.972C225.175 62.9133 225.277 62.8253 225.336 62.708C225.395 62.5613 225.483 62.4587 225.6 62.4C227.331 62.0187 228.9 62.0773 230.308 62.576C231.745 63.0747 232.875 63.896 233.696 65.04ZM239.284 61.52C238.375 61.5493 237.509 61.5493 236.688 61.52C235.896 61.4907 235.089 61.4613 234.268 61.432C233.329 61.4027 232.332 61.3733 231.276 61.344C230.22 61.3147 229.032 61.3293 227.712 61.388C226.157 61.4467 224.603 61.5053 223.048 61.564C221.523 61.6227 220.027 61.7547 218.56 61.96C218.355 61.9893 218.135 62.0333 217.9 62.092C217.695 62.1213 217.489 62.1653 217.284 62.224C216.844 62.3413 216.389 62.444 215.92 62.532C215.48 62.5907 215.011 62.5467 214.512 62.4C213.984 62.664 213.471 62.796 212.972 62.796C212.473 62.796 211.931 62.752 211.344 62.664C211.168 62.6347 210.977 62.62 210.772 62.62C210.567 62.5907 210.361 62.5613 210.156 62.532C210.039 62.2093 209.833 61.9747 209.54 61.828C209.247 61.6813 208.953 61.5347 208.66 61.388C208.396 61.212 208.249 60.9187 208.22 60.508C209.012 60.42 209.657 60.3173 210.156 60.2C210.684 60.0533 211.241 59.804 211.828 59.452C213.148 59.7453 214.6 59.8187 216.184 59.672C217.797 59.5253 219.293 59.3493 220.672 59.144C220.819 59.1147 220.965 59.1 221.112 59.1C221.259 59.0707 221.405 59.0413 221.552 59.012V57.868C220.643 58.1907 219.616 58.3373 218.472 58.308C217.357 58.2493 216.301 58 215.304 57.56C214.307 57.12 213.544 56.4893 213.016 55.668C213.749 55.5507 214.615 55.492 215.612 55.492C216.639 55.492 217.68 55.4627 218.736 55.404C219.792 55.316 220.731 55.1547 221.552 54.92C221.581 54.7733 221.596 54.656 221.596 54.568C221.596 54.4507 221.581 54.348 221.552 54.26C221.523 54.084 221.523 53.9227 221.552 53.776C221.405 53.8053 221.244 53.8347 221.068 53.864C220.921 53.864 220.76 53.8787 220.584 53.908C219.645 54.0547 218.721 54.172 217.812 54.26C216.903 54.348 216.037 54.3187 215.216 54.172C214.541 54.0253 213.925 53.7907 213.368 53.468C212.811 53.116 212.341 52.588 211.96 51.884C213.309 51.5613 214.747 51.4293 216.272 51.488C217.827 51.5173 219.499 51.4 221.288 51.136C221.347 49.9333 221.259 49.0093 221.024 48.364C220.789 47.7187 220.496 47.1027 220.144 46.516C219.997 46.2227 219.836 45.9293 219.66 45.636C219.484 45.3133 219.323 44.9467 219.176 44.536C219.205 44.3893 219.308 44.3013 219.484 44.272C219.689 44.2427 219.909 44.2427 220.144 44.272C220.291 44.272 220.408 44.272 220.496 44.272C221.141 44.7413 221.801 45.1227 222.476 45.416C223.18 45.68 223.84 46.0027 224.456 46.384C225.072 46.7653 225.556 47.3813 225.908 48.232C225.791 48.6133 225.644 48.9507 225.468 49.244C225.292 49.5373 225.189 49.9187 225.16 50.388C225.688 50.564 226.275 50.6667 226.92 50.696C227.595 50.696 228.225 50.608 228.812 50.432C229.428 50.256 229.912 50.0067 230.264 49.684C231.173 50.0067 232.097 50.3147 233.036 50.608C234.004 50.9013 234.737 51.4147 235.236 52.148C234.913 52.676 234.444 52.984 233.828 53.072C233.241 53.1307 232.611 53.16 231.936 53.16C231.701 53.1307 231.467 53.116 231.232 53.116C231.027 53.116 230.807 53.1307 230.572 53.16C230.249 53.1893 229.912 53.2333 229.56 53.292C229.237 53.3213 228.929 53.3507 228.636 53.38C227.961 53.468 227.316 53.5413 226.7 53.6C226.084 53.6587 225.527 53.6587 225.028 53.6C225.028 53.688 225.013 53.776 224.984 53.864C224.984 53.952 224.969 54.04 224.94 54.128C224.911 54.216 224.881 54.304 224.852 54.392C224.852 54.48 224.852 54.568 224.852 54.656C226.495 54.48 227.976 54.5387 229.296 54.832C230.616 55.096 231.789 55.668 232.816 56.548C232.347 56.9 231.716 57.1053 230.924 57.164C230.132 57.2227 229.296 57.2373 228.416 57.208C227.8 57.208 227.184 57.2227 226.568 57.252C225.952 57.252 225.38 57.3107 224.852 57.428C224.735 57.5747 224.661 57.7507 224.632 57.956C224.603 58.1613 224.588 58.352 224.588 58.528C224.588 58.704 224.588 58.8213 224.588 58.88C225.527 59.0853 226.48 59.144 227.448 59.056C228.445 58.968 229.413 58.836 230.352 58.66C230.88 58.572 231.393 58.4987 231.892 58.44C232.42 58.3813 232.933 58.3373 233.432 58.308C233.872 58.308 234.283 58.3667 234.664 58.484C235.045 58.6013 235.412 58.7333 235.764 58.88C236.057 58.9973 236.336 59.1147 236.6 59.232C236.864 59.32 237.157 59.3933 237.48 59.452C237.568 59.628 237.685 59.7747 237.832 59.892C237.979 59.98 238.14 60.068 238.316 60.156C238.551 60.3027 238.771 60.464 238.976 60.64C239.181 60.816 239.284 61.1093 239.284 61.52ZM208.968 64.732C208.059 65.084 207.237 65.1867 206.504 65.04C205.771 64.8933 205.081 64.6147 204.436 64.204C203.82 63.7933 203.204 63.3387 202.588 62.84C202.324 62.6347 202.06 62.4293 201.796 62.224C201.532 62.0187 201.268 61.828 201.004 61.652C200.916 60.7427 200.623 60.024 200.124 59.496C199.655 58.968 199.2 58.4253 198.76 57.868C198.76 57.8387 198.76 57.78 198.76 57.692C198.731 57.3693 198.789 57.2227 198.936 57.252C200.403 57.5453 201.84 57.9853 203.248 58.572C204.656 59.1293 205.873 59.9067 206.9 60.904C207.956 61.872 208.645 63.148 208.968 64.732ZM209.144 73.312C209.173 73.5467 209.173 73.884 209.144 74.324C209.115 74.764 209.056 75.1893 208.968 75.6C208.909 75.9813 208.807 76.26 208.66 76.436C208.748 76.612 208.836 76.656 208.924 76.568C209.041 76.48 209.1 76.436 209.1 76.436C209.276 76.8467 209.261 77.3453 209.056 77.932C208.88 78.5187 208.689 79.0907 208.484 79.648C208.396 79.824 208.323 80 208.264 80.176C208.205 80.352 208.147 80.5133 208.088 80.66C206.827 80.924 205.785 80.8653 204.964 80.484C204.143 80.1027 203.439 79.56 202.852 78.856C202.295 78.1227 201.781 77.3747 201.312 76.612C201.253 76.524 201.195 76.4507 201.136 76.392C201.107 76.304 201.063 76.216 201.004 76.128C201.004 76.128 201.004 76.084 201.004 75.996C201.033 75.8787 201.092 75.82 201.18 75.82C201.855 75.8493 202.588 75.996 203.38 76.26C204.172 76.524 204.891 76.7293 205.536 76.876C206.035 76.612 206.431 76.128 206.724 75.424C207.047 74.72 207.325 73.9867 207.56 73.224C207.824 72.432 208.103 71.8307 208.396 71.42C208.543 71.5667 208.601 71.8453 208.572 72.256C208.543 72.6667 208.411 72.9893 208.176 73.224C208.323 73.2827 208.44 73.268 208.528 73.18C208.645 73.092 208.719 72.9893 208.748 72.872C208.924 72.9013 208.909 73.092 208.704 73.444C208.557 73.6787 208.499 73.84 208.528 73.928C208.763 73.9573 208.924 73.8693 209.012 73.664C209.1 73.4293 209.144 73.312 209.144 73.312ZM209.716 53.16C208.191 52.6907 206.929 51.972 205.932 51.004C204.935 50.0067 204.348 48.7893 204.172 47.352C205.023 47.616 205.903 47.9387 206.812 48.32C207.751 48.672 208.499 49.1707 209.056 49.816C209.437 50.2267 209.687 50.7107 209.804 51.268C209.951 51.796 209.921 52.4267 209.716 53.16Z" fill="white"/>
<path d="M239.9 246.34C239.577 246.281 239.343 246.325 239.196 246.472C239.079 246.619 238.976 246.78 238.888 246.956C237.715 247.308 236.556 247.337 235.412 247.044C234.268 246.721 233.212 246.223 232.244 245.548C231.305 244.844 230.513 244.096 229.868 243.304C229.868 243.216 229.883 243.128 229.912 243.04C230 242.923 230.029 242.805 230 242.688C229.443 242.424 228.944 241.881 228.504 241.06C228.093 240.209 227.639 239.417 227.14 238.684C226.553 237.833 225.937 236.968 225.292 236.088C224.647 235.179 224.001 234.255 223.356 233.316C222.681 232.319 221.963 231.307 221.2 230.28C220.467 229.253 219.777 228.168 219.132 227.024C218.076 228.373 217.064 229.855 216.096 231.468C215.128 233.052 214.175 234.592 213.236 236.088C213.031 236.44 212.767 236.763 212.444 237.056C212.151 237.32 211.945 237.672 211.828 238.112C212.825 238.053 213.852 237.995 214.908 237.936C215.993 237.877 217.035 237.745 218.032 237.54C219.059 237.335 219.953 236.968 220.716 236.44C221.273 236.675 221.831 236.895 222.388 237.1C222.975 237.305 223.517 237.569 224.016 237.892C224.515 238.185 224.881 238.625 225.116 239.212C224.647 239.3 224.163 239.388 223.664 239.476C223.165 239.564 222.667 239.667 222.168 239.784C220.819 240.048 219.469 240.283 218.12 240.488C216.8 240.664 215.553 240.664 214.38 240.488C213.236 240.283 212.253 239.755 211.432 238.904C210.611 239.901 209.789 240.972 208.968 242.116C208.147 243.231 207.252 244.316 206.284 245.372C205.316 246.428 204.231 247.352 203.028 248.144C201.825 248.936 200.417 249.508 198.804 249.86C198.804 249.86 198.819 249.801 198.848 249.684C198.877 249.567 198.907 249.405 198.936 249.2C198.848 249.288 198.657 249.391 198.364 249.508C198.071 249.596 197.895 249.699 197.836 249.816C198.129 249.347 198.496 248.907 198.936 248.496C199.405 248.085 199.86 247.66 200.3 247.22C200.769 246.751 201.239 246.281 201.708 245.812C202.177 245.313 202.647 244.829 203.116 244.36C204.495 242.277 205.917 240.239 207.384 238.244C208.851 236.249 210.259 234.211 211.608 232.128C212.987 230.045 214.233 227.831 215.348 225.484C215.319 225.044 215.172 224.721 214.908 224.516C214.673 224.311 214.424 224.12 214.16 223.944C213.925 223.739 213.764 223.46 213.676 223.108C213.969 222.785 214.307 222.595 214.688 222.536C215.069 222.477 215.407 222.536 215.7 222.712C215.671 222.653 215.627 222.595 215.568 222.536C215.539 222.477 215.524 222.389 215.524 222.272C216.961 222.272 218.091 222.492 218.912 222.932C219.763 223.372 220.203 224.267 220.232 225.616C221.405 226.672 222.52 227.801 223.576 229.004C224.632 230.207 225.703 231.38 226.788 232.524C227.903 233.668 229.091 234.709 230.352 235.648V236.264C231.32 236.939 232.332 237.54 233.388 238.068C234.473 238.567 235.471 239.168 236.38 239.872C236.82 240.195 237.319 240.708 237.876 241.412C238.463 242.116 238.961 242.908 239.372 243.788C239.783 244.639 239.959 245.489 239.9 246.34ZM229.692 246.648C228.255 246.883 226.568 247.015 224.632 247.044C222.725 247.044 220.863 247.132 219.044 247.308C218.34 248.657 217.548 249.919 216.668 251.092C215.788 252.265 214.967 253.512 214.204 254.832C215.876 254.891 217.343 254.861 218.604 254.744C219.865 254.597 221.259 254.421 222.784 254.216C223.048 254.187 223.312 254.157 223.576 254.128C223.84 254.069 224.119 254.025 224.412 253.996C224.353 253.233 224.177 252.603 223.884 252.104C223.62 251.576 223.297 251.107 222.916 250.696C222.564 250.285 222.241 249.86 221.948 249.42C221.655 248.98 221.464 248.467 221.376 247.88C222.667 248.144 223.752 248.628 224.632 249.332C225.541 250.036 226.363 250.828 227.096 251.708C227.829 252.588 228.577 253.453 229.34 254.304C229.281 254.539 229.267 254.847 229.296 255.228C229.355 255.609 229.428 256.02 229.516 256.46C229.663 257.076 229.765 257.692 229.824 258.308C229.883 258.953 229.765 259.452 229.472 259.804C228.768 260.039 228.167 259.907 227.668 259.408C227.199 258.909 226.759 258.367 226.348 257.78C226.289 257.663 226.216 257.56 226.128 257.472C226.069 257.355 226.011 257.252 225.952 257.164C223.371 257.193 220.907 257.311 218.56 257.516C216.243 257.721 214.219 258.249 212.488 259.1C212.341 259.071 212.297 259.173 212.356 259.408C212.385 259.643 212.341 259.745 212.224 259.716C211.08 259.364 210.127 258.777 209.364 257.956C208.601 257.105 207.971 256.137 207.472 255.052C207.472 255.023 207.531 254.979 207.648 254.92C207.883 254.832 207.912 254.773 207.736 254.744C208.088 254.597 208.411 254.568 208.704 254.656C208.997 254.744 209.276 254.847 209.54 254.964C209.687 255.023 209.819 255.081 209.936 255.14C210.083 255.199 210.215 255.228 210.332 255.228C211.359 254.26 212.224 253.131 212.928 251.84C213.632 250.52 214.336 249.215 215.04 247.924C214.571 247.836 214.013 247.909 213.368 248.144C212.752 248.349 212.253 248.569 211.872 248.804C210.787 248.393 209.921 247.851 209.276 247.176C208.631 246.501 208.059 245.665 207.56 244.668C207.883 244.58 208.205 244.565 208.528 244.624C208.851 244.683 209.188 244.756 209.54 244.844C209.892 244.932 210.288 245.02 210.728 245.108C211.168 245.167 211.652 245.167 212.18 245.108C213.236 244.961 214.424 244.859 215.744 244.8C217.064 244.712 218.34 244.639 219.572 244.58C220.804 244.492 221.801 244.375 222.564 244.228C222.828 244.169 223.077 244.096 223.312 244.008C223.547 243.92 223.723 243.729 223.84 243.436C224.485 243.436 225.204 243.568 225.996 243.832C226.817 244.096 227.565 244.463 228.24 244.932C228.944 245.401 229.428 245.973 229.692 246.648Z" fill="white"/>
</svg>
